<?xml version="1.0" encoding="UTF-8"?>
<svg version="1.1" xmlns="http://www.w3.org/2000/svg" width="500" height="500">
<path d="M0 0 C1.54999032 -0.00186972 3.09998017 -0.00417107 4.64996928 -0.00686532 C8.89765489 -0.01296972 13.14532078 -0.01285133 17.39300978 -0.01167095 C21.97867423 -0.0114666 26.56433239 -0.01698894 31.1499939 -0.02172852 C40.12960004 -0.03002801 49.10919963 -0.03278303 58.08880929 -0.03334089 C65.38877346 -0.03381636 72.68873547 -0.03587262 79.98869896 -0.03904152 C100.69262326 -0.04784594 121.39654237 -0.05246119 142.10046855 -0.05171105 C143.21616571 -0.05167109 144.33186286 -0.05163113 145.48136902 -0.05158997 C146.59843075 -0.05154909 147.71549247 -0.0515082 148.86640456 -0.05146609 C166.97121428 -0.05105961 185.07600321 -0.06063018 203.18080691 -0.07472833 C221.77772885 -0.08909527 240.37464065 -0.09599835 258.97156829 -0.09513456 C269.40951935 -0.09480271 279.84744861 -0.09754437 290.28539467 -0.10831261 C299.17194017 -0.11742174 308.05845397 -0.11958942 316.94500212 -0.11280318 C321.47696397 -0.10954017 326.00886502 -0.10947345 330.54082108 -0.11815643 C334.69408048 -0.12603188 338.84723098 -0.12457935 343.00048777 -0.1158723 C344.49841609 -0.11433962 345.99635257 -0.11614468 347.49427126 -0.12173238 C370.24611174 -0.20094448 388.19087576 5.91460887 404.77507019 21.57121277 C419.47572032 37.14462877 423.16015962 55.71308929 423.09153748 76.41998291 C423.09384566 77.94695049 423.09702458 79.47391696 423.10099196 81.00088114 C423.10930009 85.17129172 423.10523283 89.34161014 423.09901953 93.51202095 C423.09447939 98.02005933 423.10148671 102.52808228 423.10697937 107.03611755 C423.11585988 115.85925356 423.11395689 124.68235549 423.10815409 133.50549281 C423.10363032 140.68232924 423.10302779 147.85915613 423.10520172 155.03599358 C423.10550819 156.05896519 423.10581465 157.08193681 423.10613041 158.13590757 C423.10676989 160.21439454 423.10741832 162.2928815 423.10807559 164.37136846 C423.11377548 183.85161832 423.10722739 203.33184934 423.09647486 222.81209611 C423.08754904 239.49865682 423.08908405 256.18518968 423.09831238 272.87174988 C423.10903724 292.27326031 423.11321633 311.6747542 423.10708785 331.07626718 C423.1064508 333.14908532 423.10582205 335.22190346 423.10520172 337.2947216 C423.10489317 338.31442883 423.10458462 339.33413606 423.10426672 340.3847435 C423.10254572 347.54286714 423.10544221 354.70098024 423.11016083 361.85910225 C423.11579474 370.59752338 423.11420115 379.33590862 423.10359934 388.07432569 C423.09837478 392.52616291 423.09623029 396.97794049 423.10289764 401.42977715 C423.17908855 457.16093297 423.17908855 457.16093297 406.83757019 476.13371277 C406.22139832 476.86203308 405.60522644 477.59035339 404.97038269 478.34074402 C392.56203412 491.84081424 375.03056258 499.11213807 356.98305583 500.41115069 C352.89662406 500.51672785 348.82017466 500.53465896 344.73292542 500.5146637 C343.16594195 500.51812947 341.59896094 500.52290016 340.03198493 500.52884543 C335.76970885 500.5412586 331.50763676 500.53522974 327.24536037 500.52588677 C322.63182192 500.51905662 318.01831683 500.52959696 313.40478516 500.53782654 C304.38467008 500.55112337 295.36463015 500.54830444 286.34451221 500.53958862 C279.01087915 500.53279732 271.67726705 500.53190159 264.34363174 500.53516006 C263.29755558 500.53561976 262.25147942 500.53607946 261.17370398 500.53655309 C259.04825849 500.53751232 256.922813 500.53848496 254.79736753 500.53947087 C234.89662306 500.54801268 214.99592014 500.53820919 195.09518249 500.52206977 C178.03696021 500.50866376 160.97879918 500.51099937 143.920578 500.52482605 C124.08509362 500.54089646 104.24964558 500.54719295 84.4141556 500.53798926 C82.29739611 500.53703366 80.18063661 500.53609055 78.06387711 500.53516006 C76.50186153 500.53446582 76.50186153 500.53446582 74.90829008 500.53375756 C67.5864634 500.53117235 60.26465986 500.53552846 52.94283676 500.54259872 C44.01587489 500.55102999 35.08899212 500.54869927 26.16203927 500.53275649 C21.61153149 500.52489626 17.06115539 500.52174373 12.51064873 500.53170395 C8.33838831 500.54069789 4.1663806 500.53564135 -0.00585715 500.51977129 C-1.50831942 500.51644331 -3.01080341 500.51807241 -4.5132515 500.52539866 C-16.66022099 500.58004764 -28.29751267 499.28377477 -39.22492981 493.63371277 C-40.22544373 493.12421082 -40.22544373 493.12421082 -41.24617004 492.60441589 C-48.25481892 488.84232808 -53.67905764 483.82765991 -59.16242981 478.13371277 C-59.826297 477.48918152 -60.49016418 476.84465027 -61.17414856 476.18058777 C-64.9950251 472.23091764 -67.74745439 467.72856592 -70.41242981 462.94621277 C-70.74210754 462.37096863 -71.07178528 461.79572449 -71.41145325 461.20304871 C-77.20339313 450.27720919 -77.60180812 438.24839151 -77.54338074 426.16241455 C-77.54684454 424.58549551 -77.55161393 423.00857889 -77.55756247 421.43166727 C-77.57000305 417.1325992 -77.56393398 412.83373275 -77.55460382 408.53466427 C-77.54778494 403.88494305 -77.5583086 399.23525524 -77.56654358 394.58554077 C-77.57985325 385.48995209 -77.57701543 376.39443786 -77.56830566 367.29884631 C-77.56151819 359.90319845 -77.56061698 352.50757139 -77.56387711 345.11192131 C-77.5643368 344.05753681 -77.5647965 343.0031523 -77.56527013 341.91681675 C-77.56622935 339.77454293 -77.567202 337.63226911 -77.56818791 335.48999529 C-77.57673381 315.42184006 -77.56692045 295.35372601 -77.55078681 275.28557753 C-77.53738631 258.0849516 -77.53971107 240.88438643 -77.55354309 223.6837616 C-77.56961641 203.68677297 -77.57590786 183.6898204 -77.5667063 163.69282621 C-77.5657507 161.55832414 -77.56480759 159.42382207 -77.56387711 157.28931999 C-77.56341428 156.23923468 -77.56295145 155.18914937 -77.5624746 154.10724329 C-77.55988982 146.72529591 -77.56424469 139.34337151 -77.57131577 131.96142769 C-77.57975053 122.95832276 -77.57740926 113.95529625 -77.56147353 104.95220024 C-77.55361707 100.36310279 -77.55045418 95.77413585 -77.56042099 91.18503952 C-77.56942321 86.97625621 -77.56434499 82.76772319 -77.54848833 78.55896228 C-77.54516373 77.04430944 -77.54678164 75.52963503 -77.5541157 74.0149963 C-77.65051954 52.43373647 -71.63672802 35.74203809 -57.01399231 19.78996277 C-55.16242981 18.13371277 -55.16242981 18.13371277 -53.16242981 18.13371277 C-53.16242981 17.47371277 -53.16242981 16.81371277 -53.16242981 16.13371277 C-36.54353696 3.44054264 -20.36386774 -0.02328521 0 0 Z " fill="#FAF5F6" transform="translate(77.16242980957031,-0.1337127685546875)"/>
<path d="M0 0 C0.81726563 -0.0721875 1.63453125 -0.144375 2.4765625 -0.21875 C10.09970644 1.67162532 16.58808007 10.57386909 21.99414062 16.00561523 C22.81460876 16.82593735 23.6350769 17.64625946 24.48040771 18.49143982 C27.16640164 21.17812519 29.84884544 23.86832514 32.53125 26.55859375 C34.40289832 28.43210899 36.27474321 30.30542574 38.14685059 32.17848206 C42.55434477 36.58907021 46.95928614 41.0021986 51.36329031 45.41627127 C56.38194079 50.44614333 61.40346979 55.4731375 66.42522907 60.49990547 C76.74499961 70.83009653 87.06119471 81.16385319 97.375 91.5 C100.57973246 90.08752061 102.71921456 88.40161439 105.18338013 85.92539978 C105.92643402 85.18365005 106.66948792 84.44190033 107.43505859 83.67767334 C108.24040039 82.86356995 109.04574219 82.04946655 109.87548828 81.21069336 C110.73117401 80.35369339 111.58685974 79.49669342 112.46847534 78.61372375 C114.3259567 76.75197858 116.18151092 74.88852565 118.03403091 73.02186394 C120.96187348 70.07173911 123.89680272 67.12873359 126.83273315 64.18666077 C131.47351767 59.53450244 136.1096031 54.87769356 140.74366081 50.21883541 C149.04849044 41.86964158 157.35894701 33.52605744 165.6746043 25.18764788 C168.5936574 22.2601757 171.50987809 19.3299188 174.42387033 16.39740932 C176.65846379 14.14970108 178.8961693 11.90509387 181.13330078 9.65991211 C181.94269104 8.84378448 182.7520813 8.02765686 183.58599854 7.1867981 C184.32341278 6.44786819 185.06082703 5.70893829 185.82058716 4.94761658 C186.46249056 4.30219375 187.10439396 3.65677092 187.76574898 2.99178982 C191.14790531 -0.14349878 194.47341072 0.17018597 198.89453125 0.21484375 C202.40697119 0.61863606 204.05302118 1.88777383 206.375 4.5 C208.90693825 7.99648616 208.87491189 11.28645697 208.375 15.5 C205.97455941 20.24136612 202.54819161 23.28985261 198.375 26.5 C197.75625 27.28375 197.1375 28.0675 196.5 28.875 C194.24824953 31.65657411 191.82246829 33.75909632 189.08984375 36.046875 C185.03694218 39.4812244 181.5721269 43.40342221 178.0625 47.375 C174.6289949 51.21984015 171.06729576 54.66460734 167.140625 57.99609375 C163.25216683 61.30816542 159.90696999 65.03048304 156.5625 68.875 C153.44168345 72.41503071 150.18333075 75.50402063 146.5859375 78.546875 C141.96380521 82.63003074 137.70482299 87.11192827 133.375 91.5 C132.52292969 92.33273438 131.67085937 93.16546875 130.79296875 94.0234375 C128.46828406 96.40445542 126.43329376 98.88914963 124.375 101.5 C125.25100908 101.49446924 125.25100908 101.49446924 126.14471531 101.48882675 C140.4202078 101.40010632 154.69567551 101.33411206 168.97138309 101.29275131 C175.87531053 101.27221279 182.77905282 101.24426129 189.68286133 101.19824219 C196.35484271 101.15378997 203.02659277 101.1308115 209.69872856 101.12049103 C212.23462371 101.11314329 214.77050928 101.09879578 217.3063221 101.07707977 C238.552114 100.90249737 255.68929619 102.27756354 272.375 116.5 C273.05691406 117.07363281 273.73882812 117.64726562 274.44140625 118.23828125 C285.42468676 128.27583897 291.75473966 142.92437653 292.74812317 157.69701958 C292.93799643 162.28849256 292.91688152 166.87800082 292.89257812 171.47241211 C292.89801312 173.2220467 292.90514343 174.9716767 292.91381836 176.72129822 C292.93189239 181.42806217 292.92505038 186.13447132 292.91230202 190.84124064 C292.90208942 195.7958264 292.91159056 200.75038421 292.91784668 205.70497131 C292.92509992 214.02236312 292.91559738 222.33961232 292.89648438 230.65698242 C292.87472734 240.23476919 292.88176797 249.81221511 292.90379 259.38999361 C292.92201911 267.65292753 292.92446559 275.91575962 292.91403532 284.17870718 C292.90784055 289.09637213 292.9068527 294.01387759 292.92018127 298.93153191 C292.93184896 303.55865388 292.92351769 308.18534221 292.90060425 312.81241798 C292.89537453 314.49727539 292.89673068 316.18217014 292.90565491 317.86701202 C293.00521089 338.59474045 288.21625392 355.73943289 273.79931641 371.07568359 C261.6065157 383.2684843 244.84431983 387.58323095 228.11750668 387.6384055 C226.54119032 387.6360826 226.54119032 387.6360826 224.93302917 387.63371277 C223.79872744 387.63597833 222.66442571 387.63824388 221.4957512 387.64057809 C217.70443243 387.6468955 213.91314962 387.64609018 210.12182617 387.64526367 C207.39961106 387.64771401 204.67739844 387.65163123 201.95518494 387.65544128 C195.33379828 387.66373079 188.71242054 387.66649535 182.09102913 387.66705366 C176.70658744 387.6675296 171.32214867 387.66958823 165.9377079 387.67275429 C150.656861 387.68155599 135.37602111 387.68617439 120.09517165 387.68542381 C119.27220007 387.68538386 118.44922848 387.6853439 117.60131836 387.68530273 C116.77733688 387.68526185 115.9533554 387.68522097 115.10440478 387.68517885 C101.75248882 387.68477245 88.40060107 387.69434175 75.04869326 387.7084411 C61.32438426 387.72281885 47.60008901 387.72971052 33.8757723 387.72884732 C26.17649443 387.72851585 18.47724615 387.73124111 10.77797508 387.74202538 C4.22270613 387.75114876 -2.33251982 387.75329053 -8.88779239 387.74651595 C-12.22892417 387.74326008 -15.56990653 387.74425583 -18.91104126 387.7518692 C-22.54146002 387.75960453 -26.171664 387.75493392 -29.80207825 387.74723816 C-31.36835637 387.7549535 -31.36835637 387.7549535 -32.96627647 387.76282471 C-49.56620739 387.68535017 -64.45319793 382.52823584 -76.90625 371.25 C-89.66310854 358.26119857 -95.71222505 343.11613956 -95.77217102 324.96362305 C-95.77584771 324.23726969 -95.7795244 323.51091633 -95.7833125 322.76255226 C-95.79426387 320.34560039 -95.79817855 317.92869162 -95.80200195 315.51171875 C-95.80827317 313.77149827 -95.81492055 312.03127912 -95.82191467 310.2910614 C-95.84288282 304.58988362 -95.85331171 298.8887058 -95.86328125 293.1875 C-95.8673318 291.21811917 -95.87144881 289.24873847 -95.87563133 287.27935791 C-95.89466873 278.02250553 -95.90890163 268.76566105 -95.9172433 259.50879288 C-95.92700426 248.8553637 -95.95330012 238.20214292 -95.99374419 227.54878712 C-96.02399824 219.29370106 -96.03872103 211.03867443 -96.04202431 202.78353405 C-96.04436456 197.8629498 -96.05319044 192.94258854 -96.07848549 188.02206421 C-96.10193384 183.38607511 -96.1059328 178.75045319 -96.09572411 174.11441994 C-96.09523265 172.42429183 -96.10143611 170.73414459 -96.11528015 169.0440731 C-96.266913 149.41538476 -91.82300788 133.42855927 -77.94921875 118.75390625 C-64.93371405 106.13214791 -51.09333509 101.32650202 -33.20361328 101.38647461 C-32.06156937 101.38632858 -30.91952545 101.38618256 -29.74287415 101.3860321 C-25.97700078 101.38672744 -22.2111772 101.39450216 -18.4453125 101.40234375 C-15.83071927 101.40420927 -13.21612569 101.40563254 -10.60153198 101.40663147 C-4.42872016 101.40973443 1.74407387 101.41793382 7.91687787 101.42798096 C14.94711051 101.43917429 21.97734403 101.44466065 29.00758338 101.44967639 C43.46339808 101.46011733 57.91919879 101.47769667 72.375 101.5 C71.6015625 100.55125 70.828125 99.6025 70.03125 98.625 C69.59619141 98.09132813 69.16113281 97.55765625 68.71289062 97.0078125 C67.28319868 95.31075021 67.28319868 95.31075021 64.875 93.5 C61.92446004 91.13956803 59.79040219 88.39848263 57.375 85.5 C56.1684375 84.5409375 56.1684375 84.5409375 54.9375 83.5625 C52.73354675 81.78858641 51.16507843 80.15633489 49.375 78 C47.60405551 75.86763827 46.05823681 74.24658945 43.875 72.5 C41.13339547 70.30671637 39.07686485 67.90118407 36.83203125 65.21875 C33.54460461 61.34082045 29.82663641 58.01557295 26 54.6875 C22.30298018 51.43878989 19.10035772 47.99731306 15.9296875 44.2421875 C13.95937238 42.03424644 11.69382578 40.33065193 9.375 38.5 C7.68767723 36.51739574 6.02133943 34.5167658 4.375 32.5 C1.64110751 29.62221843 -1.19122875 27.01898809 -4.25 24.5 C-7.84115917 21.40174503 -10.28828799 19.04217571 -10.9375 14.140625 C-11.14450073 9.76773451 -11.07357375 7.23267046 -8.75 3.4375 C-5.80002035 0.74781267 -3.92059165 0.24276109 0 0 Z " fill="#E34E65" transform="translate(151.625,56.5)"/>
<path d="M0 0 C4.41174366 1.59309061 8.33453298 3.82139114 12.375 6.1875 C13.49261719 6.81519287 14.61023438 7.44288574 15.76171875 8.08959961 C19.19325241 10.02906707 22.59962661 12.00647298 26 14 C27.04833008 14.61327148 28.09666016 15.22654297 29.17675781 15.85839844 C33.00171886 18.10340439 36.82419451 20.35094365 40.61865234 22.6472168 C45.46895857 25.57507065 50.36786556 28.22716848 55.45458984 30.7199707 C59.99763105 33.00456355 64.39696455 35.54261344 68.8125 38.0625 C70.29061157 38.90361328 70.29061157 38.90361328 71.79858398 39.76171875 C73.8447332 40.92637702 75.89038515 42.09190934 77.93554688 43.25830078 C80.93531065 44.96323345 83.9429021 46.65345975 86.953125 48.33984375 C88.82297708 49.39312193 90.69277118 50.44650303 92.5625 51.5 C93.42399658 51.97961182 94.28549316 52.45922363 95.1730957 52.95336914 C108.49939385 60.49818154 108.49939385 60.49818154 111 68 C111.66791376 74.2153086 111.79046226 79.78811439 108 85 C101.80779911 91.45883098 94.24101087 95.46491725 86.4375 99.625 C85.14191377 100.32592183 83.84700055 101.02808895 82.55273438 101.73144531 C80.58740349 102.7994305 78.62178351 103.86681461 76.65414429 104.93054199 C70.72982537 108.13414613 64.8570805 111.42507968 59 114.75 C57.61880981 115.53250122 57.61880981 115.53250122 56.2097168 116.33081055 C49.71336964 120.01596718 43.23159337 123.72647912 36.75 127.4375 C24.04908694 134.70711684 24.04908694 134.70711684 18.65234375 137.5546875 C16.55694701 138.69650899 14.53647268 139.88678223 12.50390625 141.1328125 C4.1459578 146.12660289 -3.00560551 149.08687985 -13 147 C-18.66078646 144.55256822 -21.43846665 140.93759383 -24.13398933 135.42239571 C-25.77276549 130.83842869 -25.54549997 126.18854212 -25.50170898 121.37084961 C-25.50981346 119.65958138 -25.50981346 119.65958138 -25.51808167 117.91374207 C-25.53054285 114.15967508 -25.51409516 110.40637882 -25.49609375 106.65234375 C-25.49624879 104.03495748 -25.49773853 101.41757097 -25.50050354 98.80018616 C-25.50319912 93.32202228 -25.48978529 87.84407833 -25.46655273 82.3659668 C-25.43993362 76.04584681 -25.43820245 69.726094 -25.4499411 63.40593714 C-25.4607447 57.30727417 -25.45440987 51.20876439 -25.44038582 45.11010933 C-25.43587471 42.5229792 -25.43553153 39.93583829 -25.43945122 37.3487072 C-25.44236605 33.73216595 -25.42584262 30.11622162 -25.40405273 26.49975586 C-25.40855438 25.434104 -25.41305603 24.36845215 -25.41769409 23.27050781 C-25.34920462 16.4183229 -24.80171393 11.0957552 -20.02734375 5.8203125 C-19.33769531 5.26085937 -18.64804688 4.70140625 -17.9375 4.125 C-17.24527344 3.55007812 -16.55304688 2.97515625 -15.83984375 2.3828125 C-11.08225609 -1.19295402 -5.7161657 -0.70478948 0 0 Z " fill="#F8ECEE" transform="translate(217,227)"/>
<path d="M0 0 C0 0.33 0 0.66 0 1 C-17.23279434 1.7316764 -34.42314143 2.13758663 -51.67181969 2.07516479 C-55.31627859 2.06207971 -58.96070006 2.05580918 -62.60517883 2.05102539 C-70.29930333 2.03978759 -77.99339523 2.02044801 -85.6875 2 C-94.70866968 1.97634467 -103.72982334 1.95606679 -112.75101662 1.94406128 C-116.34361192 1.93757779 -119.9361545 1.92509047 -123.5287323 1.91235352 C-125.70234125 1.90872601 -127.87595068 1.90537367 -130.04956055 1.90234375 C-131.54910782 1.89459427 -131.54910782 1.89459427 -133.07894897 1.88668823 C-133.98224442 1.88661774 -134.88553986 1.88654724 -135.81620789 1.88647461 C-136.60484569 1.884254 -137.39348349 1.88203339 -138.2060194 1.87974548 C-140.02327739 1.80386717 -140.02327739 1.80386717 -141 3 C-142.60875 3.0928125 -142.60875 3.0928125 -144.25 3.1875 C-148.15644444 4.0338963 -148.45559886 4.11929972 -150.625 7.0625 C-153 10 -153 10 -155.625 10.375 C-156.40875 10.25125 -157.1925 10.1275 -158 10 C-161.04363616 9.65416961 -161.04363616 9.65416961 -162.75390625 11.6796875 C-163.35074219 12.40414062 -163.94757813 13.12859375 -164.5625 13.875 C-166.33094768 15.99713721 -168.04578517 18.04578517 -170 20 C-170.99 20 -171.98 20 -173 20 C-175.12821884 22.81711646 -175.12821884 22.81711646 -177 26 C-177.66 26.99 -178.32 27.98 -179 29 C-179.33 28.67 -179.66 28.34 -180 28 C-181.00806851 29.59910868 -182.00620385 31.20448262 -183 32.8125 C-183.556875 33.70582031 -184.11375 34.59914062 -184.6875 35.51953125 C-186.23384792 37.97422623 -186.23384792 37.97422623 -186 41 C-186.47104156 41.72322449 -186.94208313 42.44644897 -187.42739868 43.19158936 C-189.40412199 46.72169627 -189.80809343 49.9768521 -190.16162109 53.93457031 C-190.24111181 54.78646564 -190.32060253 55.63836098 -190.40250206 56.51607132 C-191.60577379 71.40740477 -191.35971467 86.41646302 -191.40471697 101.34617901 C-191.42053461 105.91720315 -191.44726346 110.48816444 -191.4727478 115.05914307 C-191.51921037 123.68224104 -191.55610994 132.30535128 -191.58942068 140.928509 C-191.62787444 150.75953843 -191.67722221 160.59050423 -191.72740483 170.4214797 C-191.83023989 190.61427258 -191.91965497 210.80710591 -192 231 C-192.33 231 -192.66 231 -193 231 C-193.09364948 207.92039905 -193.16407995 184.84082967 -193.20724869 161.76107693 C-193.22782992 151.043534 -193.25586524 140.32610948 -193.30175781 129.60864258 C-193.34176192 120.26183633 -193.36746504 110.91511588 -193.37635398 101.5682264 C-193.38154583 96.62404982 -193.39365502 91.6801186 -193.42292023 86.73602104 C-193.45030433 82.07141491 -193.4583991 77.40715249 -193.45243073 72.7424736 C-193.45352077 71.04105695 -193.46133655 69.3396274 -193.4768219 67.63828087 C-193.64691458 47.96633761 -189.23293121 31.96549855 -175.32421875 17.25390625 C-162.44695436 4.76620616 -148.67824514 -0.09565726 -130.9753418 -0.22119141 C-129.8734552 -0.2326973 -128.7715686 -0.24420319 -127.6362915 -0.25605774 C-123.99062872 -0.29274411 -120.34494915 -0.32242535 -116.69921875 -0.3515625 C-114.14451382 -0.3747111 -111.58981108 -0.39810165 -109.03511047 -0.42172241 C-103.6677155 -0.47019396 -98.30030611 -0.51516991 -92.93286133 -0.55761719 C-86.79608792 -0.60622538 -80.65942256 -0.6625855 -74.52275532 -0.72303832 C-68.56307992 -0.78144512 -62.60335702 -0.83283349 -56.64359474 -0.88163376 C-54.1383074 -0.90290512 -51.63303472 -0.92599772 -49.12778282 -0.9510994 C-32.71938501 -1.11188251 -16.38948551 -0.82382379 0 0 Z " fill="#E77F94" transform="translate(249,158)"/>
<path d="M0 0 C-2.44200471 2.05128396 -4.51575167 3.21182658 -7.5 4.4375 C-10.85241605 5.93411431 -12.63379755 7.25520516 -15 10 C-15.66 9.67 -16.32 9.34 -17 9 C-17.33 9.99 -17.66 10.98 -18 12 C-19.11375 12.12375 -19.11375 12.12375 -20.25 12.25 C-23.09362747 12.76865551 -23.09362747 12.76865551 -24.7890625 14.8984375 C-28.11509703 18.05993322 -32.03345094 19.00403345 -36.3203125 20.4609375 C-39.29386058 21.81332323 -39.29386058 21.81332323 -40.3671875 25.1640625 C-40.57601562 26.09992188 -40.78484375 27.03578125 -41 28 C-45.75 28.125 -45.75 28.125 -48 27 C-50.09904549 27.54745119 -50.09904549 27.54745119 -52.375 28.4375 C-55.64417838 29.65660833 -57.38356977 30 -61 30 C-61 29.01 -61 28.02 -61 27 C-60.30777344 26.87625 -59.61554688 26.7525 -58.90234375 26.625 C-50.34403882 24.82087775 -43.42431323 21.38392965 -35.91333008 17.08935547 C-33.85911483 15.91978695 -31.78981548 14.78006694 -29.71875 13.640625 C-26.33452944 11.76534536 -22.99497448 9.82651381 -19.66796875 7.8515625 C-18.76755859 7.32175781 -17.86714844 6.79195313 -16.93945312 6.24609375 C-15.08004717 5.150773 -13.22597794 4.04634947 -11.37695312 2.93359375 C-10.48298828 2.41152344 -9.58902344 1.88945312 -8.66796875 1.3515625 C-7.86641357 0.87541504 -7.0648584 0.39926758 -6.23901367 -0.09130859 C-3.65872498 -1.13850459 -2.56209352 -0.97035127 0 0 Z " fill="#C9425A" transform="translate(269,348)"/>
<path d="M0 0 C12.72407072 1.69654276 23.03293847 10.27137713 31 20 C35.59583082 26.56466437 39.24660603 32.87779381 40 41 C39.67 40.34 39.34 39.68 39 39 C35.97065509 38.34227572 35.97065509 38.34227572 33 38 C33.04125 36.88625 33.0825 35.7725 33.125 34.625 C33.41121859 30.95633975 33.41121859 30.95633975 31 29 C30.60235737 27.01178687 30.26224651 25.01055661 30 23 C29.01 22.67 28.02 22.34 27 22 C27 21.34 27 20.68 27 20 C26.01 19.67 25.02 19.34 24 19 C23.525625 18.154375 23.05125 17.30875 22.5625 16.4375 C22.046875 15.633125 21.53125 14.82875 21 14 C19.68 14 18.36 14 17 14 C16.7525 13.236875 16.505 12.47375 16.25 11.6875 C14.8612897 8.70177285 13.85170073 7.59359747 11 6 C9.68 6 8.36 6 7 6 C5.375 4.5 5.375 4.5 4 3 C3.34 3 2.68 3 2 3 C1.67 3.66 1.34 4.32 1 5 C0.67 3.35 0.34 1.7 0 0 Z " fill="#DD6F85" transform="translate(401,161)"/>
<path d="M0 0 C0.66 0.33 1.32 0.66 2 1 C0.07423885 3.43929746 -1.80090595 5.80090595 -4 8 C-4.99 8 -5.98 8 -7 8 C-9.12821884 10.81711646 -9.12821884 10.81711646 -11 14 C-11.99 15.485 -11.99 15.485 -13 17 C-13.33 16.67 -13.66 16.34 -14 16 C-15.00806851 17.59910868 -16.00620385 19.20448262 -17 20.8125 C-17.556875 21.70582031 -18.11375 22.59914062 -18.6875 23.51953125 C-20.23384792 25.97422623 -20.23384792 25.97422623 -20 29 C-20.47050781 29.67417969 -20.94101562 30.34835938 -21.42578125 31.04296875 C-23.70716696 35.32835083 -23.81867249 39.52450979 -24.1875 44.3125 C-24.3102832 45.70952148 -24.3102832 45.70952148 -24.43554688 47.13476562 C-24.6349871 49.42246232 -24.82275822 51.71049448 -25 54 C-25.33 54 -25.66 54 -26 54 C-26.72931362 35.949488 -23.9310933 21.26481298 -11.4453125 7.40625 C-8.46036617 4.5019779 -6.17583814 3 -2 3 C-2 2.34 -2 1.68 -2 1 C-1.34 0.67 -0.68 0.34 0 0 Z " fill="#EA768E" transform="translate(83,170)"/>
<path d="M0 0 C0 0.33 0 0.66 0 1 C-0.95261719 1.14695313 -1.90523437 1.29390625 -2.88671875 1.4453125 C-10.95212562 2.46621525 -10.95212562 2.46621525 -17.0625 7.1875 C-17.701875 8.115625 -18.34125 9.04375 -19 10 C-21.625 10.375 -21.625 10.375 -24 10 C-27.59422497 10 -28.99344236 11.14981068 -32 13 C-32.66 13 -33.32 13 -34 13 C-34 13.66 -34 14.32 -34 15 C-36.375 16.6875 -36.375 16.6875 -39 18 C-39.66 17.67 -40.32 17.34 -41 17 C-29.45531106 5.76205401 -16.19502353 -0.27922454 0 0 Z " fill="#E4879B" transform="translate(115,158)"/>
<path d="M0 0 C0.66 0 1.32 0 2 0 C2.495 1.98 2.495 1.98 3 4 C0.2264506 5.84903293 -0.90601799 6.31244844 -4 7 C-7.65670531 7.80648688 -7.65670531 7.80648688 -11 9 C-11.33 9.99 -11.66 10.98 -12 12 C-14.84917228 13.42458614 -17.58165443 14.1380197 -20.6875 14.875 C-24.07818744 15.65457164 -24.07818744 15.65457164 -25.4375 18.125 C-25.623125 18.74375 -25.80875 19.3625 -26 20 C-27.32 19.67 -28.64 19.34 -30 19 C-29.67 18.34 -29.34 17.68 -29 17 C-28.34 17 -27.68 17 -27 17 C-26.67 16.01 -26.34 15.02 -26 14 C-24.3293457 12.75732422 -24.3293457 12.75732422 -22.17578125 11.5546875 C-21.39396484 11.11769531 -20.61214844 10.68070312 -19.80664062 10.23046875 C-18.98357422 9.78316406 -18.16050781 9.33585937 -17.3125 8.875 C-16.50876953 8.41996094 -15.70503906 7.96492188 -14.87695312 7.49609375 C-10.49101232 5.07898492 -6.98666424 3.75068064 -2 3 C-1.34 2.01 -0.68 1.02 0 0 Z " fill="#CA415A" transform="translate(325,314)"/>
<path d="M0 0 C0.99 0.99 1.98 1.98 3 3 C2 6 2 6 0 7 C0 7.66 0 8.32 0 9 C-1.33333333 10.33333333 -2.66666667 11.66666667 -4 13 C-4.33 13.99 -4.66 14.98 -5 16 C-6.32796291 16.35412344 -7.66216607 16.68521554 -9 17 C-9.495 17.53625 -9.99 18.0725 -10.5 18.625 C-11.2425 19.305625 -11.2425 19.305625 -12 20 C-14.1875 19.6875 -14.1875 19.6875 -16 19 C-15.28328125 18.30261719 -14.5665625 17.60523438 -13.828125 16.88671875 C-10.95059668 14.00817579 -8.3399779 10.94916485 -5.75 7.8125 C-5.30398438 7.27947266 -4.85796875 6.74644531 -4.3984375 6.19726562 C-1.95191899 3.26588274 -1.95191899 3.26588274 0 0 Z " fill="#FACCD7" transform="translate(435,414)"/>
<path d="M0 0 C2.39521539 2.01264627 2.97935308 2.93805924 4 6 C0.51285381 4.97937185 -2.09905597 3.93264194 -5.125 1.875 C-10.03815074 -1.03568618 -15.48356889 -0.78149441 -21 0 C-23.52756411 1.05644281 -24.89407517 2.16406554 -27 4 C-27.99 4.66 -28.98 5.32 -30 6 C-30.3125 3.6875 -30.3125 3.6875 -30 1 C-22.05331135 -5.35735092 -8.70455156 -4.40667923 0 0 Z " fill="#DE5A75" transform="translate(226,228)"/>
<path d="M0 0 C0.66 0 1.32 0 2 0 C5.0232153 22.9440447 5.0232153 22.9440447 0 30.4375 C-0.96654121 31.65238861 -1.95476847 32.85211181 -3 34 C-4.32 33.67 -5.64 33.34 -7 33 C-6.50628906 32.45730469 -6.01257813 31.91460937 -5.50390625 31.35546875 C-4.86324219 30.64003906 -4.22257812 29.92460937 -3.5625 29.1875 C-2.92441406 28.47980469 -2.28632813 27.77210938 -1.62890625 27.04296875 C1.56331752 23.03929242 1.38546225 18.78463462 1.359375 13.8671875 C0.68768381 8.50825994 -2.2652813 4.7347187 -6 1 C-4.68 1 -3.36 1 -2 1 C-1.34 1.66 -0.68 2.32 0 3 C0 2.01 0 1.02 0 0 Z " fill="#D64866" transform="translate(326,284)"/>
<path d="M0 0 C0.33 0.66 0.66 1.32 1 2 C2.65 2 4.3 2 6 2 C7.125 5.75 7.125 5.75 6 8 C6.78375 8.0825 7.5675 8.165 8.375 8.25 C11 9 11 9 12.125 11 C12.41375 11.66 12.7025 12.32 13 13 C13.99 13.33 14.98 13.66 16 14 C18 17 18 17 18 20 C13.99589212 18.66529737 13.29333798 16.44000697 11 13 C10.01 12.67 9.02 12.34 8 12 C8 11.34 8 10.68 8 10 C7.01 9.67 6.02 9.34 5 9 C0 3.65116279 0 3.65116279 0 0 Z " fill="#EC3B65" transform="translate(200,128)"/>
<path d="M0 0 C5.75 1.875 5.75 1.875 8 3 C9.32 3 10.64 3 12 3 C12 3.66 12 4.32 12 5 C13.32 5 14.64 5 16 5 C16 5.99 16 6.98 16 8 C20.29 8.66 24.58 9.32 29 10 C28.34 10.66 27.68 11.32 27 12 C16.89521227 11.64544604 8.22601222 6.58132353 0 1 C0 0.67 0 0.34 0 0 Z " fill="#DA4E70" transform="translate(80,431)"/>
<path d="M0 0 C0.66 0.66 1.32 1.32 2 2 C2.99 2 3.98 2 5 2 C5 1.34 5 0.68 5 0 C6.32 0.66 7.64 1.32 9 2 C7.06730041 3.17460192 5.12866687 4.33944472 3.1875 5.5 C2.10855469 6.1496875 1.02960938 6.799375 -0.08203125 7.46875 C-3 9 -3 9 -6 9 C-6 6.36 -6 3.72 -6 1 C-5.67 1.66 -5.34 2.32 -5 3 C-3.35 2.67 -1.7 2.34 0 2 C0 1.34 0 0.68 0 0 Z " fill="#FAD3DA" transform="translate(231,360)"/>
<path d="M0 0 C8.49757347 1.1330098 14.13987107 5.00870484 21 10 C20.67 10.99 20.34 11.98 20 13 C19.01 13.33 18.02 13.66 17 14 C16.7525 13.236875 16.505 12.47375 16.25 11.6875 C14.8612897 8.70177285 13.85170073 7.59359747 11 6 C9.68 6 8.36 6 7 6 C5.375 4.5 5.375 4.5 4 3 C3.34 3 2.68 3 2 3 C1.67 3.66 1.34 4.32 1 5 C0.67 3.35 0.34 1.7 0 0 Z " fill="#E57187" transform="translate(401,161)"/>
<path d="M0 0 C0.66 0.33 1.32 0.66 2 1 C1.67 2.65 1.34 4.3 1 6 C-3.75 6.125 -3.75 6.125 -6 5 C-8.09904549 5.54745119 -8.09904549 5.54745119 -10.375 6.4375 C-13.64417838 7.65660833 -15.38356977 8 -19 8 C-19 7.01 -19 6.02 -19 5 C-17.96359375 4.80664062 -16.9271875 4.61328125 -15.859375 4.4140625 C-14.48952391 4.15135133 -13.11973548 3.88831329 -11.75 3.625 C-11.06808594 3.49867188 -10.38617188 3.37234375 -9.68359375 3.2421875 C-6.13198319 2.55255438 -3.20646774 1.63377166 0 0 Z " fill="#D03552" transform="translate(227,370)"/>
<path d="M0 0 C-1.65 1.32 -3.3 2.64 -5 4 C-4.34 4.33 -3.68 4.66 -3 5 C-3.99 5.33 -4.98 5.66 -6 6 C-6.66 5.67 -7.32 5.34 -8 5 C-10.41830729 6.18950183 -10.41830729 6.18950183 -13 7.875 C-18 11 -18 11 -20 12 C-19.62788323 9.55608924 -19.3876681 8.32741488 -17.46533203 6.70385742 C-16.49635986 6.16015503 -16.49635986 6.16015503 -15.5078125 5.60546875 C-14.80269531 5.20779297 -14.09757812 4.81011719 -13.37109375 4.40039062 C-12.62988281 4.00013672 -11.88867188 3.59988281 -11.125 3.1875 C-10.39152344 2.76791016 -9.65804688 2.34832031 -8.90234375 1.91601562 C-3.39150822 -1.13050274 -3.39150822 -1.13050274 0 0 Z " fill="#C74158" transform="translate(290,336)"/>
<path d="M0 0 C6.57142857 5 6.57142857 5 8 10 C7.34 10.66 6.68 11.32 6 12 C5.01 12 4.02 12 3 12 C2.34 10.68 1.68 9.36 1 8 C0.01 8 -0.98 8 -2 8 C-1.67 7.4225 -1.34 6.845 -1 6.25 C0.27075898 3.80116138 0.27075898 3.80116138 0 0 Z " fill="#DD3E56" transform="translate(194,366)"/>
<path d="M0 0 C0 3.93602341 -1.58022978 4.99361881 -4 8 C-4.96044102 10.07690578 -4.96044102 10.07690578 -5 12 C-4.34 12.66 -3.68 13.32 -3 14 C-5.64 14 -8.28 14 -11 14 C-10.52406444 9.71657993 -8.05238315 7.84426611 -5 5 C-4.071875 4.071875 -3.14375 3.14375 -2.1875 2.1875 C-1.1046875 1.1046875 -1.1046875 1.1046875 0 0 Z " fill="#FCE3E8" transform="translate(289,143)"/>
<path d="M0 0 C0 4.81751657 -3.49364586 7.18996871 -6.6875 10.5625 C-7.31333984 11.24763672 -7.93917969 11.93277344 -8.58398438 12.63867188 C-14.33860969 18.77894747 -14.33860969 18.77894747 -19 20 C-16.2046217 16.56029691 -13.48401416 13.40162877 -10.0625 10.5625 C-6.26445405 7.38454319 -3.17515179 3.7857579 0 0 Z " fill="#FDD7E1" transform="translate(313,119)"/>
<path d="M0 0 C0.66 0.66 1.32 1.32 2 2 C1.52006592 2.56170898 1.04013184 3.12341797 0.5456543 3.70214844 C-1.17202199 6.255737 -1.47752496 7.73029958 -1.73046875 10.765625 C-1.81103516 11.65507812 -1.89160156 12.54453125 -1.97460938 13.4609375 C-2.04486328 14.38132813 -2.11511719 15.30171875 -2.1875 16.25 C-2.26935547 17.18585938 -2.35121094 18.12171875 -2.43554688 19.0859375 C-2.63538005 21.38989647 -2.8230939 23.69418616 -3 26 C-3.33 26 -3.66 26 -4 26 C-4.05437005 23.14557247 -4.09384974 20.29219924 -4.125 17.4375 C-4.14175781 16.63763672 -4.15851562 15.83777344 -4.17578125 15.01367188 C-4.21711449 9.95035001 -3.78880659 5.75972662 -2 1 C-1.34 0.67 -0.68 0.34 0 0 Z " fill="#E86D87" transform="translate(61,198)"/>
<path d="M0 0 C4.84582441 4.68950749 4.84582441 4.68950749 5.375 9.1875 C4.88139412 14.20582644 3.15258465 16.1380838 0 20 C-0.99 19.67 -1.98 19.34 -3 19 C-2.01 18.67 -1.02 18.34 0 18 C-0.33 16.68 -0.66 15.36 -1 14 C0.32 13.67 1.64 13.34 3 13 C2.68991116 11.39536551 2.37683713 9.79130769 2.0625 8.1875 C1.88847656 7.29417969 1.71445312 6.40085937 1.53515625 5.48046875 C1.02258847 2.88602829 1.02258847 2.88602829 0 0 Z " fill="#D3697F" transform="translate(355,59)"/>
<path d="M0 0 C0.33 0.99 0.66 1.98 1 3 C-3.66666667 7.66666667 -8.33333333 12.33333333 -13 17 C-13 13 -13 13 -11.171875 11.03515625 C-10.37265625 10.38417969 -9.5734375 9.73320313 -8.75 9.0625 C-5.41898528 6.25605453 -2.55784174 3.55873633 0 0 Z " fill="#FDDBE3" transform="translate(341,91)"/>
<path d="M0 0 C1.65 0 3.3 0 5 0 C0.24595518 5.5302154 -8.19466859 8.03977323 -15.25 8.8125 C-16.4875 8.874375 -17.725 8.93625 -19 9 C-15.81099544 6.87399696 -13.09585431 5.97863761 -9.4375 4.875 C-7.70306641 4.34519531 -7.70306641 4.34519531 -5.93359375 3.8046875 C-3 3 -3 3 -1 3 C-0.67 2.01 -0.34 1.02 0 0 Z " fill="#D24E6D" transform="translate(410,434)"/>
<path d="M0 0 C2.375 0.9375 2.375 0.9375 5.375 2.9375 C2.31253253 4.72159802 0.15420727 5.16630021 -3.375 5.0625 C-4.17421875 5.04445313 -4.9734375 5.02640625 -5.796875 5.0078125 C-6.40015625 4.98460937 -7.0034375 4.96140625 -7.625 4.9375 C-3.34213147 -0.07957456 -3.34213147 -0.07957456 0 0 Z " fill="#F8D2D9" transform="translate(216.625,369.0625)"/>
<path d="M0 0 C2.9375 1.0625 2.9375 1.0625 6 3 C6.875 6.6875 6.875 6.6875 7 10 C6.67 9.34 6.34 8.68 6 8 C2.97065509 7.34227572 2.97065509 7.34227572 0 7 C0 4.69 0 2.38 0 0 Z " fill="#E4657B" transform="translate(434,192)"/>
<path d="M0 0 C0.66 0.33 1.32 0.66 2 1 C0.52202738 4.67056937 -1.47615477 6.41085783 -4.625 8.75 C-5.44226563 9.36359375 -6.25953125 9.9771875 -7.1015625 10.609375 C-7.72804688 11.06828125 -8.35453125 11.5271875 -9 12 C-9 9 -9 9 -7.3125 7.125 C-6.549375 6.42375 -5.78625 5.7225 -5 5 C-4.0925 4.0925 -3.185 3.185 -2.25 2.25 C-1.5075 1.5075 -0.765 0.765 0 0 Z " fill="#D94A6A" transform="translate(426,422)"/>
<path d="M0 0 C2.48676914 0.72430169 4.96850173 1.4609722 7.4453125 2.21875 C9.3120655 2.78962248 11.18551704 3.33871916 13.0625 3.875 C13.701875 4.24625 14.34125 4.6175 15 5 C15.62109375 7.5703125 15.62109375 7.5703125 16 10 C13.51705004 8.71520038 11.03874091 7.4226131 8.5625 6.125 C7.85544922 5.76019531 7.14839844 5.39539063 6.41992188 5.01953125 C1.11328125 2.2265625 1.11328125 2.2265625 0 0 Z " fill="#D84E6D" transform="translate(286,265)"/>
<path d="M0 0 C1.26328125 0.02707031 2.5265625 0.05414063 3.828125 0.08203125 C4.79234375 0.11683594 5.7565625 0.15164062 6.75 0.1875 C6.75 0.5175 6.75 0.8475 6.75 1.1875 C6.16992188 1.21328125 5.58984375 1.2390625 4.9921875 1.265625 C-0.52281992 1.66605458 -3.79232569 2.68504161 -8.25 6.1875 C-9.24 6.8475 -10.23 7.5075 -11.25 8.1875 C-11.5 5.875 -11.5 5.875 -11.25 3.1875 C-7.87400844 -0.39105106 -4.726229 -0.13128414 0 0 Z " fill="#DC647B" transform="translate(207.25,225.8125)"/>
<path d="M0 0 C0 4.24645065 -1.81750806 6.38524772 -4 10 C-4.99 9.67 -5.98 9.34 -7 9 C-7.33 10.32 -7.66 11.64 -8 13 C-8.99 12.34 -9.98 11.68 -11 11 C-7.37 7.37 -3.74 3.74 0 0 Z " fill="#D65C79" transform="translate(292,107)"/>
<path d="M0 0 C2.31 1.98 4.62 3.96 7 6 C8.32 5.34 9.64 4.68 11 4 C11.66 3.67 12.32 3.34 13 3 C13 4.32 13 5.64 13 7 C5.83870968 8.19354839 5.83870968 8.19354839 2.5625 7.4375 C0.21723034 5.27985191 0.26766522 3.07815008 0 0 Z " fill="#D85C76" transform="translate(242,142)"/>
<path d="M0 0 C2.05078125 0.03255208 4.1015625 0.06510417 6.15234375 0.09765625 C6.48234375 0.75765625 6.81234375 1.41765625 7.15234375 2.09765625 C4.18234375 3.41765625 1.21234375 4.73765625 -1.84765625 6.09765625 C-2.22984392 4.44150968 -2.56160727 2.77308601 -2.84765625 1.09765625 C-1.84765625 0.09765625 -1.84765625 0.09765625 0 0 Z " fill="#FAD8DE" transform="translate(261.84765625,343.90234375)"/>
<path d="M0 0 C0.66 1.32 1.32 2.64 2 4 C1.34 4.66 0.68 5.32 0 6 C0 5.34 0 4.68 0 4 C-2.24768247 4.8804896 -2.24768247 4.8804896 -3.3125 7.5 C-5 10 -5 10 -7.6875 10.8125 C-8.450625 10.874375 -9.21375 10.93625 -10 11 C-6.79239749 7.19364503 -3.59253891 3.45436433 0 0 Z " fill="#D75875" transform="translate(310,89)"/>
<path d="M0 0 C1.19234985 2.87689064 1.02291478 3.93988906 -0.109375 6.91015625 C-0.65078125 7.95042969 -1.1921875 8.99070312 -1.75 10.0625 C-2.28109375 11.10535156 -2.8121875 12.14820313 -3.359375 13.22265625 C-4.7508773 15.57827085 -5.95623894 17.22094293 -8 19 C-7.75 15.625 -7.75 15.625 -7 12 C-5 10.875 -5 10.875 -3 10 C-2.3121764 7.64632287 -2.3121764 7.64632287 -2 5 C-1.36562656 3.3207762 -0.70710678 1.64991582 0 0 Z " fill="#D2516F" transform="translate(440,400)"/>
<path d="M0 0 C0.66 0.66 1.32 1.32 2 2 C0.02 5.96 -1.96 9.92 -4 14 C-4.33 14 -4.66 14 -5 14 C-5.602537 7.01057082 -5.602537 7.01057082 -3.88671875 4.1328125 C-2.66254412 2.69138998 -1.33721771 1.33721771 0 0 Z " fill="#FDE6EE" transform="translate(64,184)"/>
<path d="M0 0 C3.3 0.33 6.6 0.66 10 1 C10 1.66 10 2.32 10 3 C6.78548731 4.60725635 3.56387464 4.05748185 0 4 C0 2.68 0 1.36 0 0 Z " fill="#F9CBD5" transform="translate(100,442)"/>
<path d="M0 0 C-1.95519384 1.17192047 -3.9142539 2.3373929 -5.875 3.5 C-6.96554687 4.1496875 -8.05609375 4.799375 -9.1796875 5.46875 C-12 7 -12 7 -14 7 C-14 6.34 -14 5.68 -14 5 C-12.35 4.67 -10.7 4.34 -9 4 C-8.67 3.01 -8.34 2.02 -8 1 C-4.95413501 -1.10059655 -3.45012008 -1.01261386 0 0 Z " fill="#FCD1D9" transform="translate(311,322)"/>
<path d="M0 0 C4.30067708 0.90014171 6.3884892 2.09828697 8.875 5.625 C9.57625 6.73875 10.2775 7.8525 11 9 C10.67 9.66 10.34 10.32 10 11 C8.33035479 9.35718838 6.6643536 7.71067239 5 6.0625 C4.071875 5.14597656 3.14375 4.22945312 2.1875 3.28515625 C0 1 0 1 0 0 Z " fill="#FDE2E8" transform="translate(421,170)"/>
<path d="M0 0 C0.33 1.65 0.66 3.3 1 5 C0.01 4.67 -0.98 4.34 -2 4 C-2.66 4.66 -3.32 5.32 -4 6 C-4 5.34 -4 4.68 -4 4 C-5.65 4.33 -7.3 4.66 -9 5 C-8.25 3.0625 -8.25 3.0625 -7 1 C-4.50529228 0.03430669 -2.70254461 0 0 0 Z " fill="#F9C9D2" transform="translate(403,441)"/>
<path d="M0 0 C0.66 0.33 1.32 0.66 2 1 C2 2.32 2 3.64 2 5 C-0.64738916 6.4606285 -1.89448334 7 -5 7 C-5.66 6.01 -6.32 5.02 -7 4 C-1.7265625 0.77734375 -1.7265625 0.77734375 0 0 Z " fill="#FACBD5" transform="translate(417,433)"/>
<path d="M0 0 C2.97 0.495 2.97 0.495 6 1 C6 3.64 6 6.28 6 9 C2.91910327 6.22719294 1.31224548 3.93673644 0 0 Z " fill="#D84E6E" transform="translate(63,411)"/>
<path d="M0 0 C0.33 0.66 0.66 1.32 1 2 C4.465 1.505 4.465 1.505 8 1 C4.53258866 3.95749791 1.13126473 6.07848152 -3 8 C-2.67 7.01 -2.34 6.02 -2 5 C-1.34 5 -0.68 5 0 5 C-0.2784375 4.0409375 -0.2784375 4.0409375 -0.5625 3.0625 C-0.706875 2.381875 -0.85125 1.70125 -1 1 C-0.67 0.67 -0.34 0.34 0 0 Z " fill="#FBD0DA" transform="translate(273,337)"/>
<path d="M0 0 C1.14926266 0.95421808 2.29430541 1.91352045 3.4375 2.875 C4.07558594 3.40867188 4.71367187 3.94234375 5.37109375 4.4921875 C7 6 7 6 8 8 C5.0625 7.625 5.0625 7.625 2 7 C1.67 6.34 1.34 5.68 1 5 C0.34 5 -0.32 5 -1 5 C-0.67 3.35 -0.34 1.7 0 0 Z " fill="#D85872" transform="translate(227,127)"/>
<path d="M0 0 C1.12894876 0.93274109 2.25300876 1.87140122 3.375 2.8125 C4.00148437 3.33457031 4.62796875 3.85664062 5.2734375 4.39453125 C7 6 7 6 9 9 C6 9 6 9 3 8 C3 7.01 3 6.02 3 5 C2.34 5 1.68 5 1 5 C0.67 3.35 0.34 1.7 0 0 Z " fill="#D25A73" transform="translate(200,100)"/>
<path d="M0 0 C0.66 0 1.32 0 2 0 C2.33 1.32 2.66 2.64 3 4 C-0.18762365 6.12508244 -2.26512223 6.5020163 -6 7 C-6 6.01 -6 5.02 -6 4 C-5.38125 3.896875 -4.7625 3.79375 -4.125 3.6875 C-1.63473516 3.12474627 -1.63473516 3.12474627 0 0 Z " fill="#DA3954" transform="translate(325,314)"/>
<path d="M0 0 C-1.625 2.0625 -1.625 2.0625 -4 4 C-7.25 3.75 -7.25 3.75 -10 3 C-10 2.34 -10 1.68 -10 1 C-3.375 -1.125 -3.375 -1.125 0 0 Z " fill="#F37B8F" transform="translate(99,164)"/>
<path d="M0 0 C0 0.33 0 0.66 0 1 C-2.64 1 -5.28 1 -8 1 C-8 1.99 -8 2.98 -8 4 C-10.31 4.33 -12.62 4.66 -15 5 C-10.68177756 -0.75762992 -6.92478377 -0.60507819 0 0 Z " fill="#CC516E" transform="translate(353,57)"/>
<path d="M0 0 C0.66 0.33 1.32 0.66 2 1 C1.938125 1.9075 1.87625 2.815 1.8125 3.75 C2.01672076 7.28982642 2.64551835 8.44931155 5 11 C2.53199953 9.84826645 0.95216435 8.95216435 -1 7 C-1.39764263 5.01178687 -1.73775349 3.01055661 -2 1 C-1.34 0.67 -0.68 0.34 0 0 Z " fill="#DC4165" transform="translate(70,414)"/>
<path d="M0 0 C1.32 0 2.64 0 4 0 C4.66 1.65 5.32 3.3 6 5 C6.66 5 7.32 5 8 5 C9.625 7 9.625 7 11 9 C10.67 9.66 10.34 10.32 10 11 C8.33035479 9.35718838 6.6643536 7.71067239 5 6.0625 C4.071875 5.14597656 3.14375 4.22945313 2.1875 3.28515625 C0 1 0 1 0 0 Z " fill="#FEEAF0" transform="translate(209,108)"/>
<path d="M0 0 C1.98 0.99 3.96 1.98 6 3 C5.34 4.32 4.68 5.64 4 7 C2.68 6.67 1.36 6.34 0 6 C0 4 0 2 0 0 Z " fill="#FAD0D9" transform="translate(80,432)"/>
<path d="M0 0 C2.08304538 -0.05418326 4.16649768 -0.09287551 6.25 -0.125 C7.99023438 -0.15980469 7.99023438 -0.15980469 9.765625 -0.1953125 C12.82786046 -0.0103949 14.44202751 0.39176977 17 2 C16.67 2.99 16.34 3.98 16 5 C15.46890625 4.50886719 14.9378125 4.01773438 14.390625 3.51171875 C11.31984538 1.56990223 9.35078604 1.69508306 5.75 1.8125 C4.67234375 1.83957031 3.5946875 1.86664063 2.484375 1.89453125 C1.66453125 1.92933594 0.8446875 1.96414062 0 2 C0 1.34 0 0.68 0 0 Z " fill="#FDDCE4" transform="translate(341,56)"/>
<path d="M0 0 C0.33 0.66 0.66 1.32 1 2 C-5.5 5 -5.5 5 -10 5 C-10 4.01 -10 3.02 -10 2 C-6.7 1.34 -3.4 0.68 0 0 Z " fill="#CA3F57" transform="translate(218,373)"/>
<path d="M0 0 C2.97 0.495 2.97 0.495 6 1 C6 1.66 6 2.32 6 3 C6.66 3 7.32 3 8 3 C8.33 3.99 8.66 4.98 9 6 C8.01 6 7.02 6 6 6 C6 5.34 6 4.68 6 4 C4.68 4 3.36 4 2 4 C2 3.34 2 2.68 2 2 C1.34 2 0.68 2 0 2 C0 1.34 0 0.68 0 0 Z " fill="#E63B61" transform="translate(318,281)"/>
<path d="M0 0 C1.12894876 0.93274109 2.25300876 1.87140122 3.375 2.8125 C4.00148437 3.33457031 4.62796875 3.85664062 5.2734375 4.39453125 C7 6 7 6 9 9 C6 9 6 9 4.39453125 7.5390625 C3.61142578 6.59160156 3.61142578 6.59160156 2.8125 5.625 C2.28269531 4.99851562 1.75289062 4.37203125 1.20703125 3.7265625 C0 2 0 2 0 0 Z " fill="#D25D76" transform="translate(189,89)"/>
<path d="M0 0 C6.52307692 0.61538462 6.52307692 0.61538462 8.9375 2.5625 C9.288125 3.036875 9.63875 3.51125 10 4 C9.67 4.66 9.34 5.32 9 6 C6.03 4.35 3.06 2.7 0 1 C0 0.67 0 0.34 0 0 Z " fill="#DA5771" transform="translate(232,235)"/>
<path d="M0 0 C0 2 0 4 0 6 C-0.7425 6.28875 -1.485 6.5775 -2.25 6.875 C-4.56900199 7.82368263 -6.76932676 8.86559779 -9 10 C-8.06409496 8.8944811 -7.12620142 7.79064547 -6.1875 6.6875 C-5.66542969 6.07261719 -5.14335937 5.45773438 -4.60546875 4.82421875 C-3.12827531 3.14575321 -1.59960869 1.56117966 0 0 Z " fill="#D1607A" transform="translate(280,119)"/>
<path d="M0 0 C0 3.57575896 -1.08840607 5.05295935 -3 8 C-4.32 7.67 -5.64 7.34 -7 7 C-4.69 4.69 -2.38 2.38 0 0 Z " fill="#C94B63" transform="translate(326,310)"/>
<path d="M0 0 C1.46015291 0.28241641 2.91809793 0.57626614 4.375 0.875 C5.18710937 1.03742188 5.99921875 1.19984375 6.8359375 1.3671875 C9 2 9 2 11 4 C8.03 3.67 5.06 3.34 2 3 C1.67 3.66 1.34 4.32 1 5 C0.67 3.35 0.34 1.7 0 0 Z " fill="#DF7A8E" transform="translate(401,161)"/>
<path d="M0 0 C2.475 0.99 2.475 0.99 5 2 C5 2.66 5 3.32 5 4 C5.66 4.33 6.32 4.66 7 5 C6.01 5.33 5.02 5.66 4 6 C1.3125 4.0625 1.3125 4.0625 -1 2 C-0.67 1.34 -0.34 0.68 0 0 Z " fill="#E73961" transform="translate(175,104)"/>
<path d="M0 0 C1.17539996 0.92652701 2.34010577 1.86663387 3.5 2.8125 C4.1496875 3.33457031 4.799375 3.85664062 5.46875 4.39453125 C7 6 7 6 7 9 C6.34 8.67 5.68 8.34 5 8 C5 7.34 5 6.68 5 6 C3.68 5.67 2.36 5.34 1 5 C0.67 3.35 0.34 1.7 0 0 Z " fill="#D35D76" transform="translate(178,78)"/>
<path d="M0 0 C1.17539996 0.92652701 2.34010577 1.86663387 3.5 2.8125 C4.1496875 3.33457031 4.799375 3.85664062 5.46875 4.39453125 C7 6 7 6 7 9 C0.70535714 4.17857143 0.70535714 4.17857143 0 0 Z " fill="#D15C75" transform="translate(160,60)"/>
<path d="M0 0 C1.32 0.66 2.64 1.32 4 2 C2.25 5.875 2.25 5.875 0 7 C-0.99 5.68 -1.98 4.36 -3 3 C-2.01 3 -1.02 3 0 3 C0 2.01 0 1.02 0 0 Z " fill="#D64362" transform="translate(428,416)"/>
<path d="M0 0 C3 1 6 2 9 3 C8.34 4.32 7.68 5.64 7 7 C5.83040013 6.02433888 4.66438823 5.044375 3.5 4.0625 C2.8503125 3.51722656 2.200625 2.97195312 1.53125 2.41015625 C1.0259375 1.94480469 0.520625 1.47945313 0 1 C0 0.67 0 0.34 0 0 Z " fill="#D9496C" transform="translate(174,107)"/>
<path d="M0 0 C0.99 0.33 1.98 0.66 3 1 C1.02 3.97 1.02 3.97 -1 7 C-1.99 6.67 -2.98 6.34 -4 6 C-3.01 5.67 -2.02 5.34 -1 5 C-1.33 3.68 -1.66 2.36 -2 1 C-1.34 0.67 -0.68 0.34 0 0 Z " fill="#D65A75" transform="translate(356,72)"/>
<path d="M0 0 C0.66 0 1.32 0 2 0 C1.34 1.98 0.68 3.96 0 6 C-0.99 6 -1.98 6 -3 6 C-2.42655063 3.13275314 -2.1385485 2.1385485 0 0 Z " fill="#FDF5F5" transform="translate(198,232)"/>
<path d="M0 0 C0.99 0.33 1.98 0.66 3 1 C2.34 1.66 1.68 2.32 1 3 C0.3574765 5.06874034 0.3574765 5.06874034 0 7 C-0.99 6.67 -1.98 6.34 -3 6 C-1.125 1.125 -1.125 1.125 0 0 Z " fill="#EF526C" transform="translate(196,226)"/>
<path d="M0 0 C0.66 0.33 1.32 0.66 2 1 C0.07423885 3.43929746 -1.80090595 5.80090595 -4 8 C-4.33 6.35 -4.66 4.7 -5 3 C-4.01 3 -3.02 3 -2 3 C-2 2.34 -2 1.68 -2 1 C-1.34 0.67 -0.68 0.34 0 0 Z " fill="#F1758A" transform="translate(83,170)"/>
<path d="M0 0 C1.14926266 0.95421808 2.29430541 1.91352045 3.4375 2.875 C4.07558594 3.40867187 4.71367187 3.94234375 5.37109375 4.4921875 C7 6 7 6 8 8 C7.01 8 6.02 8 5 8 C5 7.34 5 6.68 5 6 C3.68 5.67 2.36 5.34 1 5 C0.67 3.35 0.34 1.7 0 0 Z " fill="#FCD8E1" transform="translate(171,104)"/>
<path d="M0 0 C1.67542976 0.28604898 3.34385343 0.61781233 5 1 C5 1.99 5 2.98 5 4 C2.13275314 3.42655063 1.1385485 3.1385485 -1 1 C-0.67 0.67 -0.34 0.34 0 0 Z " fill="#FACDD2" transform="translate(202,370)"/>
<path d="M0 0 C-1 3 -1 3 -3.375 4.25 C-6 5 -6 5 -9 4 C-2.25 0 -2.25 0 0 0 Z " fill="#C94961" transform="translate(249,357)"/>
<path d="M0 0 C1.19156292 4.76625167 0.3415946 5.87879351 -2 10 C-2.66 9.67 -3.32 9.34 -4 9 C-2.68 6.03 -1.36 3.06 0 0 Z " fill="#E27F97" transform="translate(63,189)"/>
<path d="M0 0 C-0.33 0.66 -0.66 1.32 -1 2 C-3.3140622 2.73075648 -5.64828869 3.40138258 -8 4 C-8.66 3.34 -9.32 2.68 -10 2 C-6.49223216 0.39644899 -3.85645121 -0.22036864 0 0 Z " fill="#E18291" transform="translate(101,161)"/>
<path d="M0 0 C0 3.57575896 -1.08840607 5.05295935 -3 8 C-3.75 6.25 -3.75 6.25 -4 4 C-2.0625 1.75 -2.0625 1.75 0 0 Z " fill="#D75273" transform="translate(292,107)"/>
<path d="M0 0 C3.25543229 0.34879632 4.01873107 1.02133261 6.25 3.5625 C6.8275 4.366875 7.405 5.17125 8 6 C7.67 6.66 7.34 7.32 7 8 C1.125 3.375 1.125 3.375 0 0 Z " fill="#D54D6F" transform="translate(143,75)"/>
<path d="M0 0 C1.98 1.65 3.96 3.3 6 5 C5.67 5.66 5.34 6.32 5 7 C2.5 5.75 2.5 5.75 0 4 C0 2.68 0 1.36 0 0 Z " fill="#C8475A" transform="translate(194,366)"/>
<path d="M0 0 C0.99 0.33 1.98 0.66 3 1 C2.34 2.32 1.68 3.64 1 5 C-0.32 4.67 -1.64 4.34 -3 4 C-2.67 3.34 -2.34 2.68 -2 2 C-1.34 2 -0.68 2 0 2 C0 1.34 0 0.68 0 0 Z " fill="#D0354F" transform="translate(298,329)"/>
<path d="M0 0 C2.64 0 5.28 0 8 0 C8 0.99 8 1.98 8 3 C6.35 3.33 4.7 3.66 3 4 C2.01 2.68 1.02 1.36 0 0 Z " fill="#E15176" transform="translate(214,147)"/>
<path d="M0 0 C1.32 0 2.64 0 4 0 C4.33 1.32 4.66 2.64 5 4 C4.01 4.33 3.02 4.66 2 5 C1.34 3.35 0.68 1.7 0 0 Z " fill="#EA3D67" transform="translate(193,122)"/>
</svg>
